<mxfile host="app.diagrams.net" modified="2024-03-26T08:57:04.913Z" agent="Mozilla/5.0 (Windows NT 10.0; Win64; x64) AppleWebKit/537.36 (KHTML, like Gecko) Chrome/122.0.0.0 Safari/537.36 Edg/122.0.0.0" etag="yOBH6lGRXbQbdJ2ACMh7" version="24.0.7" type="github">
  <diagram name="Page-1" id="N3zU_HhqojqstIqfTzih">
    <mxGraphModel dx="1881" dy="1701" grid="1" gridSize="10" guides="1" tooltips="1" connect="1" arrows="1" fold="1" page="1" pageScale="1" pageWidth="850" pageHeight="1100" math="0" shadow="0">
      <root>
        <mxCell id="0" />
        <mxCell id="1" parent="0" />
        <mxCell id="oDV7k8fVwY99kWG6QzHV-1" value="clone_check_table" style="rounded=0;whiteSpace=wrap;html=1;" vertex="1" parent="1">
          <mxGeometry x="240" y="170" width="120" height="60" as="geometry" />
        </mxCell>
        <mxCell id="oDV7k8fVwY99kWG6QzHV-19" style="edgeStyle=orthogonalEdgeStyle;rounded=0;orthogonalLoop=1;jettySize=auto;html=1;exitX=0;exitY=0.5;exitDx=0;exitDy=0;entryX=1;entryY=0.5;entryDx=0;entryDy=0;" edge="1" parent="1" source="oDV7k8fVwY99kWG6QzHV-5" target="oDV7k8fVwY99kWG6QzHV-1">
          <mxGeometry relative="1" as="geometry" />
        </mxCell>
        <mxCell id="oDV7k8fVwY99kWG6QzHV-5" value="WRITE" style="whiteSpace=wrap;html=1;rounded=0;" vertex="1" parent="1">
          <mxGeometry x="440" y="170" width="120" height="60" as="geometry" />
        </mxCell>
        <mxCell id="oDV7k8fVwY99kWG6QzHV-17" style="edgeStyle=orthogonalEdgeStyle;rounded=0;orthogonalLoop=1;jettySize=auto;html=1;entryX=0;entryY=0.5;entryDx=0;entryDy=0;" edge="1" parent="1" source="oDV7k8fVwY99kWG6QzHV-7" target="oDV7k8fVwY99kWG6QzHV-1">
          <mxGeometry relative="1" as="geometry" />
        </mxCell>
        <mxCell id="oDV7k8fVwY99kWG6QzHV-7" value="READ" style="whiteSpace=wrap;html=1;rounded=0;" vertex="1" parent="1">
          <mxGeometry x="40" y="170" width="120" height="60" as="geometry" />
        </mxCell>
        <mxCell id="oDV7k8fVwY99kWG6QzHV-12" value="" style="edgeStyle=orthogonalEdgeStyle;rounded=0;orthogonalLoop=1;jettySize=auto;html=1;" edge="1" parent="1" source="oDV7k8fVwY99kWG6QzHV-9" target="oDV7k8fVwY99kWG6QzHV-11">
          <mxGeometry relative="1" as="geometry" />
        </mxCell>
        <mxCell id="oDV7k8fVwY99kWG6QzHV-16" style="edgeStyle=orthogonalEdgeStyle;rounded=0;orthogonalLoop=1;jettySize=auto;html=1;entryX=0;entryY=0.5;entryDx=0;entryDy=0;" edge="1" parent="1" source="oDV7k8fVwY99kWG6QzHV-9" target="oDV7k8fVwY99kWG6QzHV-7">
          <mxGeometry relative="1" as="geometry" />
        </mxCell>
        <mxCell id="oDV7k8fVwY99kWG6QzHV-9" value="CHECK THE CLONE TABLE IF THE CARD EXISTS" style="whiteSpace=wrap;html=1;rounded=0;" vertex="1" parent="1">
          <mxGeometry x="-210" y="155" width="150" height="90" as="geometry" />
        </mxCell>
        <mxCell id="oDV7k8fVwY99kWG6QzHV-11" value="&lt;font color=&quot;#ff4b1f&quot;&gt;IF EXISTS; THROW ERROR&lt;/font&gt;" style="whiteSpace=wrap;html=1;rounded=0;" vertex="1" parent="1">
          <mxGeometry x="-195" y="340" width="120" height="60" as="geometry" />
        </mxCell>
        <mxCell id="oDV7k8fVwY99kWG6QzHV-14" value="" style="endArrow=none;dashed=1;html=1;dashPattern=1 3;strokeWidth=2;rounded=0;fillColor=#cdeb8b;strokeColor=#FF1A00;" edge="1" parent="1">
          <mxGeometry width="50" height="50" relative="1" as="geometry">
            <mxPoint x="200" y="520" as="sourcePoint" />
            <mxPoint x="200" y="-20" as="targetPoint" />
          </mxGeometry>
        </mxCell>
        <mxCell id="oDV7k8fVwY99kWG6QzHV-15" value="&lt;b&gt;PROCESS JOBS&lt;/b&gt;" style="text;html=1;align=center;verticalAlign=middle;whiteSpace=wrap;rounded=0;" vertex="1" parent="1">
          <mxGeometry x="-10" y="330" width="160" height="30" as="geometry" />
        </mxCell>
        <mxCell id="oDV7k8fVwY99kWG6QzHV-18" value="&lt;b&gt;POST PROCESSING&lt;/b&gt;" style="text;html=1;align=center;verticalAlign=middle;whiteSpace=wrap;rounded=0;" vertex="1" parent="1">
          <mxGeometry x="320" y="330" width="140" height="30" as="geometry" />
        </mxCell>
      </root>
    </mxGraphModel>
  </diagram>
</mxfile>
